<svg width="40" height="40" viewBox="0 0 40 40" fill="none" xmlns="http://www.w3.org/2000/svg">
<path d="M35.625 19.2587V10.358C35.6239 9.36382 35.2285 8.41062 34.5255 7.70759C33.8224 7.00457 32.8692 6.60913 31.875 6.60805H30.5688C30.0343 6.72405 25.419 4.80128 24.8267 4.6293C21.7161 3.457 18.2852 3.4569 15.1746 4.629C14.5573 4.785 9.99412 6.73844 9.43116 6.6081H8.125C7.13077 6.60919 6.17757 7.00463 5.47455 7.70765C4.77152 8.41068 4.37609 9.36388 4.375 10.3581V19.2587C3.80559 19.5874 3.33261 20.06 3.00351 20.6291C2.67441 21.1982 2.50077 21.8439 2.5 22.5014V33.7504C2.5059 34.4096 2.7719 35.0397 3.24011 35.5038C3.70831 35.9678 4.34083 36.2281 5.00003 36.2281C5.65922 36.2281 6.29174 35.9678 6.75993 35.5037C7.22813 35.0397 7.49411 34.4095 7.5 33.7503V31.8757C7.50022 31.71 7.56613 31.5512 7.6833 31.434C7.80046 31.3168 7.95931 31.2509 8.125 31.2507H31.875C32.0407 31.2509 32.1995 31.3168 32.3167 31.434C32.4339 31.5512 32.4998 31.71 32.5 31.8757V33.7504C32.5 34.4134 32.7634 35.0493 33.2322 35.5182C33.7011 35.987 34.337 36.2504 35 36.2504C35.663 36.2504 36.2989 35.987 36.7678 35.5182C37.2366 35.0493 37.5 34.4134 37.5 33.7504V22.5013C37.4992 21.8439 37.3256 21.1982 36.9965 20.629C36.6674 20.0599 36.1944 19.5873 35.625 19.2587ZM5.625 10.3581C5.62576 9.69526 5.88939 9.05982 6.35807 8.59114C6.82675 8.12247 7.46219 7.85883 8.125 7.85807C9.00744 7.93622 9.89674 7.85508 10.7505 7.61851L15.614 5.79905C18.4414 4.73357 21.56 4.7338 24.3872 5.79967L29.2493 7.61852C30.1036 7.85228 30.9925 7.93337 31.875 7.85805C32.5378 7.85883 33.1733 8.12248 33.6419 8.59116C34.1106 9.05983 34.3742 9.69527 34.375 10.3581V18.8078C33.5434 18.7448 32.7091 18.7259 31.8755 18.7513L31.8756 15.0017C31.8749 14.3388 31.6112 13.7034 31.1426 13.2347C30.6739 12.766 30.0384 12.5024 29.3756 12.5017H24.375C23.7122 12.5024 23.0767 12.766 22.6081 13.2347C22.1394 13.7034 21.8758 14.3388 21.875 15.0017V18.7513H18.125V15.0017C18.1242 14.3388 17.8606 13.7034 17.3919 13.2347C16.9233 12.766 16.2878 12.5024 15.625 12.5017H10.6244C9.96157 12.5024 9.32612 12.766 8.85745 13.2347C8.38877 13.7034 8.12513 14.3388 8.12437 15.0017V18.7513H6.25C6.04045 18.7526 5.83139 18.7715 5.625 18.8078V10.3581ZM30.6256 18.7513H23.125V15.0017C23.1253 14.6702 23.2571 14.3525 23.4915 14.1181C23.7258 13.8838 24.0436 13.752 24.375 13.7517H29.3756C29.707 13.752 30.0248 13.8838 30.2591 14.1181C30.4935 14.3525 30.6253 14.6702 30.6256 15.0017V18.7513ZM16.875 18.7513H9.37437V15.0017C9.37471 14.6702 9.50651 14.3525 9.74086 14.1181C9.97521 13.8838 10.293 13.752 10.6244 13.7517H15.625C15.9564 13.752 16.2742 13.8838 16.5085 14.1181C16.7429 14.3525 16.8747 14.6702 16.875 15.0017V18.7513ZM6.25 20.0013C10.6103 20.0017 33.75 20.0013 33.75 20.0013C34.4128 20.0021 35.0483 20.2657 35.5169 20.7344C35.9856 21.2031 36.2492 21.8385 36.25 22.5013V26.2507H3.75V22.5013C3.75076 21.8385 4.01439 21.2031 4.48307 20.7344C4.95175 20.2657 5.58719 20.0021 6.25 20.0013ZM35 35.0004C34.6686 35.0001 34.3508 34.8683 34.1165 34.6339C33.8821 34.3996 33.7503 34.0818 33.75 33.7504V31.8757C33.7495 31.3786 33.5517 30.902 33.2002 30.5505C32.8487 30.199 32.3721 30.0013 31.875 30.0007H8.125C7.62789 30.0013 7.15129 30.199 6.79977 30.5505C6.44826 30.902 6.25054 31.3786 6.25 31.8757V33.7504C6.2461 34.0794 6.11269 34.3935 5.87868 34.6248C5.64468 34.856 5.32896 34.9857 4.99998 34.9857C4.671 34.9857 4.35528 34.856 4.12128 34.6247C3.88729 34.3935 3.75389 34.0793 3.75 33.7504V27.5007H36.25V33.7504C36.2497 34.0818 36.1179 34.3996 35.8835 34.6339C35.6492 34.8683 35.3314 35.0001 35 35.0004Z" fill="white"/>
</svg>
