<svg width="65" height="65" viewBox="0 0 65 65" fill="none" xmlns="http://www.w3.org/2000/svg">
<path d="M27.9302 22.3438C25.9214 22.3437 23.9577 22.9393 22.2875 24.0553C20.6172 25.1713 19.3154 26.7575 18.5467 28.6133C17.7779 30.4691 17.5767 32.5113 17.9685 34.4814C18.3604 36.4516 19.3277 38.2614 20.748 39.6818C22.1684 41.1022 23.9781 42.0696 25.9483 42.4615C27.9184 42.8535 29.9606 42.6524 31.8164 41.8837C33.6723 41.115 35.2586 39.8133 36.3746 38.1431C37.4907 36.4729 38.0864 34.5093 38.0864 32.5005C38.0834 29.8078 37.0124 27.2262 35.1084 25.3221C33.2044 23.4181 30.6229 22.3469 27.9302 22.3438ZM27.9302 40.6255C26.3231 40.6255 24.7522 40.149 23.4159 39.2562C22.0797 38.3634 21.0382 37.0945 20.4232 35.6098C19.8082 34.125 19.6473 32.4913 19.9608 30.9151C20.2743 29.339 21.0482 27.8912 22.1845 26.7548C23.3209 25.6185 24.7687 24.8446 26.3448 24.5311C27.921 24.2176 29.5547 24.3785 31.0394 24.9935C32.5241 25.6086 33.7931 26.65 34.6859 27.9863C35.5787 29.3225 36.0552 30.8934 36.0552 32.5005C36.0527 34.6546 35.1959 36.7198 33.6727 38.243C32.1495 39.7662 30.0843 40.623 27.9302 40.6255Z" fill="black"/>
<path d="M55.3516 17.7734H47.026C46.6878 16.467 45.9259 15.3095 44.8594 14.4825C43.793 13.6555 42.4824 13.2055 41.1328 13.2031H14.7266C13.377 13.2055 12.0664 13.6555 11 14.4825C9.93352 15.3095 9.17154 16.467 8.83335 17.7734H7.10938C6.30156 17.7743 5.52709 18.0956 4.95588 18.6668C4.38467 19.238 4.06338 20.0125 4.0625 20.8203V25.8984C4.06328 26.7063 4.38452 27.4809 4.95574 28.0522C5.52696 28.6235 6.30149 28.9449 7.10938 28.9458H8.63281V45.7036C8.63458 47.3192 9.27716 48.8682 10.4196 50.0106C11.562 51.153 13.1109 51.7956 14.7266 51.7974H41.1328C42.7484 51.7956 44.2974 51.153 45.4398 50.0106C46.5822 48.8682 47.2248 47.3192 47.2266 45.7036V24.375H58.9062V25.6445C58.9062 25.9139 59.0133 26.1722 59.2037 26.3627C59.3942 26.5532 59.6525 26.6602 59.9219 26.6602C60.1912 26.6602 60.4496 26.5532 60.64 26.3627C60.8305 26.1722 60.9375 25.9139 60.9375 25.6445V23.3594C60.9359 21.8784 60.3469 20.4585 59.2997 19.4113C58.2524 18.3641 56.8326 17.775 55.3516 17.7734ZM8.63281 26.9146H7.10938C6.84002 26.9143 6.58179 26.8071 6.39137 26.6166C6.20095 26.4261 6.09391 26.1678 6.09375 25.8984V20.8203C6.09402 20.551 6.20111 20.2929 6.39152 20.1025C6.58193 19.912 6.8401 19.805 7.10938 19.8047H8.63281V26.9146ZM45.1953 45.7036C45.1942 46.7807 44.7659 47.8134 44.0042 48.575C43.2426 49.3367 42.2099 49.765 41.1328 49.7661H14.7266C13.6495 49.765 12.6168 49.3367 11.8551 48.575C11.0935 47.8134 10.6651 46.7807 10.6641 45.7036V19.2969C10.6652 18.2198 11.0936 17.1871 11.8552 16.4255C12.6168 15.6639 13.6495 15.2355 14.7266 15.2344H41.1328C42.2099 15.2355 43.2425 15.6639 44.0042 16.4255C44.7658 17.1871 45.1942 18.2198 45.1953 19.2969V45.7036ZM47.2266 22.3438V19.8047H55.3516C56.1143 19.8074 56.8559 20.0559 57.4663 20.5132C58.0768 20.9706 58.5236 21.6125 58.7405 22.3438H47.2266Z" fill="black"/>
</svg>
