<svg t="1714659963758" class="icon" viewBox="0 0 1415 1024" version="1.1" xmlns="http://www.w3.org/2000/svg" p-id="15198" width="128" height="128"><path d="M888.47 0a135.53 135.53 0 0 1 135.38 129.144l0.15 6.385v333.222a45.176 45.176 0 0 1-90.142 4.337l-0.21-4.337V135.53a45.176 45.176 0 0 0-40.84-44.965l-4.337-0.211H135.529a45.176 45.176 0 0 0-44.965 40.84l-0.211 4.336v752.942a45.176 45.176 0 0 0 40.84 44.965l4.336 0.211h542.118a45.176 45.176 0 0 1 4.337 90.142l-4.337 0.211H135.53A135.53 135.53 0 0 1 0.151 894.856L0 888.47V135.529A135.53 135.53 0 0 1 129.144 0.151L135.53 0h752.942z m337.62 635.814l2.288 3.523 96.798 161.34V662.589a45.176 45.176 0 0 1 90.143-4.337l0.21 4.337v301.177c0 44.393-56.62 61.44-81.618 26.774l-2.29-3.523-96.797-161.34v138.089a45.176 45.176 0 0 1-90.143 4.337l-0.21-4.337V662.588c0-44.393 56.62-61.44 81.618-26.774z m-171.972-18.402a45.176 45.176 0 0 1 0 90.353h-135.53V768h135.53a45.176 45.176 0 0 1 0 90.353h-135.53v60.235h135.53a45.176 45.176 0 0 1 0 90.353H888.47a60.235 60.235 0 0 1-60.236-60.235V677.647a60.235 60.235 0 0 1 60.236-60.235h165.647zM512 256a45.176 45.176 0 0 1 45.176 45.176v45.177h120.471a60.235 60.235 0 0 1 60.235 60.235v180.706a60.235 60.235 0 0 1-60.235 60.235h-120.47v75.295a45.176 45.176 0 0 1-90.353 0v-75.295H346.353a60.235 60.235 0 0 1-60.235-60.235V406.588a60.235 60.235 0 0 1 60.235-60.235h120.47v-45.177A45.176 45.176 0 0 1 512 256z m-45.176 180.706H376.47v120.47h90.353v-120.47z m180.705 0h-90.353v120.47h90.353v-120.47z" fill="#333333" p-id="15199"></path></svg>