<svg width="127" height="127" viewBox="0 0 127 127" fill="none" xmlns="http://www.w3.org/2000/svg">
<g clip-path="url(#clip0_4400_841)">
<path d="M126.974 48.5503C126.961 48.4044 126.932 48.2603 126.888 48.1207C126.859 47.9959 126.818 47.874 126.767 47.7565C126.708 47.6416 126.637 47.5331 126.555 47.4326C126.474 47.3133 126.379 47.2033 126.274 47.1044C126.24 47.0749 126.225 47.0344 126.189 47.0049L105.832 31.1948V14.809C105.832 11.302 102.989 8.4587 99.482 8.4587H76.5425L67.3576 1.32724C66.2547 0.467128 64.8962 0 63.4976 0C62.0991 0 60.7405 0.467128 59.6377 1.32724L50.4508 8.4587H27.5113C24.0042 8.4587 21.161 11.3017 21.161 14.809V31.1951L0.81041 47.0052C0.774442 47.0349 0.759558 47.0751 0.725822 47.1046C0.620306 47.2035 0.525898 47.3135 0.444275 47.4328C0.362841 47.5333 0.291937 47.6418 0.23268 47.7568C0.181409 47.8742 0.141054 47.9961 0.112123 48.1209C0.0680163 48.2585 0.0389071 48.4005 0.0253021 48.5444C0.0253021 48.5888 0 48.627 0 48.6714V120.648C0.00293332 121.994 0.438532 123.304 1.24253 124.384C1.25518 124.403 1.25741 124.426 1.27205 124.443C1.28693 124.46 1.31868 124.479 1.33977 124.502C1.92648 125.274 2.68299 125.901 3.55074 126.334C4.41849 126.766 5.3742 126.994 6.34387 126.998H120.65C121.623 126.995 122.583 126.767 123.454 126.333C124.324 125.898 125.083 125.268 125.671 124.492C125.688 124.471 125.713 124.464 125.728 124.443C125.743 124.422 125.745 124.403 125.757 124.384C126.561 123.304 126.997 121.994 127 120.648V48.6773C127 48.6329 126.977 48.5947 126.974 48.5503ZM62.2265 4.66737C62.5855 4.3821 63.0305 4.22681 63.4891 4.22681C63.9476 4.22681 64.3927 4.3821 64.7517 4.66737L69.635 8.45846H57.3578L62.2265 4.66737ZM6.8772 122.765L62.2267 79.7706C62.5859 79.4858 63.0309 79.3308 63.4893 79.3308C63.9478 79.3308 64.3927 79.4858 64.752 79.7706L120.116 122.765H6.8772ZM122.766 119.464L67.3576 76.4302C66.2544 75.5708 64.896 75.1041 63.4976 75.1041C62.0992 75.1041 60.7408 75.5708 59.6377 76.4302L4.22693 119.464V51.9011L38.9146 78.8372C39.1343 79.0076 39.3855 79.133 39.6537 79.2064C39.922 79.2797 40.202 79.2995 40.4779 79.2646C40.7538 79.2297 41.0201 79.1408 41.2616 79.003C41.5032 78.8652 41.7152 78.6811 41.8856 78.4613C42.056 78.2416 42.1815 77.9904 42.2548 77.7222C42.3282 77.4539 42.3479 77.1739 42.313 76.898C42.2781 76.6221 42.1892 76.3558 42.0514 76.1143C41.9136 75.8727 41.7295 75.6607 41.5098 75.4903L6.2697 48.1269L21.1612 36.5544V52.9107C21.1612 53.4721 21.3842 54.0105 21.7812 54.4074C22.1781 54.8044 22.7165 55.0274 23.2779 55.0274C23.8393 55.0274 24.3777 54.8044 24.7746 54.4074C25.1716 54.0105 25.3946 53.4721 25.3946 52.9107V14.8088C25.3946 14.2474 25.6176 13.709 26.0146 13.3121C26.4115 12.9151 26.9499 12.6921 27.5113 12.6921H99.4815C100.043 12.6921 100.581 12.9151 100.978 13.3121C101.375 13.709 101.598 14.2474 101.598 14.8088V52.9107C101.598 53.4721 101.821 54.0105 102.218 54.4074C102.615 54.8044 103.154 55.0274 103.715 55.0274C104.276 55.0274 104.815 54.8044 105.212 54.4074C105.609 54.0105 105.832 53.4721 105.832 52.9107V36.5544L120.723 48.1269L85.4218 75.5392C85.199 75.7085 85.0119 75.9202 84.8715 76.1622C84.731 76.4042 84.64 76.6716 84.6035 76.949C84.5671 77.2264 84.586 77.5083 84.6592 77.7784C84.7324 78.0484 84.8584 78.3013 85.03 78.5223C85.2015 78.7434 85.4151 78.9282 85.6586 79.0662C85.902 79.2041 86.1703 79.2925 86.4481 79.326C86.7259 79.3596 87.0075 79.3378 87.2768 79.2619C87.5461 79.1859 87.7977 79.0573 88.017 78.8835L122.766 51.9011V119.464H122.766Z" fill="white"/>
<path d="M88.8963 50.7941V42.3271C88.8963 28.2983 77.5238 16.9258 63.495 16.9258C49.4663 16.9258 38.0938 28.2983 38.0938 42.3271C38.0938 56.3558 49.4663 67.7284 63.495 67.7284C64.6641 67.7284 65.6117 66.7808 65.6117 65.6117C65.6117 64.4426 64.6641 63.495 63.495 63.495C51.8045 63.495 42.3274 54.0179 42.3274 42.3273C42.3274 30.6368 51.8045 21.1597 63.495 21.1597C75.1856 21.1597 84.6627 30.6368 84.6627 42.3273V50.7943C84.6627 53.1325 82.7673 55.028 80.4291 55.028C78.0909 55.028 76.1954 53.1325 76.1954 50.7943V42.3273C76.1954 41.1582 75.2479 40.2106 74.0788 40.2106C72.9096 40.2106 71.9621 41.1582 71.9621 42.3273C71.9621 47.0035 68.1712 50.7943 63.495 50.7943C58.8189 50.7943 55.028 47.0035 55.028 42.3273C55.028 37.6512 58.8189 33.8603 63.495 33.8603C64.6641 33.8603 65.6117 32.9127 65.6117 31.7436C65.6117 30.5745 64.6641 29.6269 63.495 29.6269C57.8108 29.6143 52.8101 33.3801 51.2523 38.8468C49.6945 44.3135 51.9585 50.1496 56.7957 53.1353C61.6329 56.1209 67.8646 55.529 72.0531 51.6859C72.514 56.1623 76.4048 59.4908 80.8986 59.2529C85.3927 59.0148 88.9105 55.2944 88.8963 50.7941Z" fill="white"/>
</g>
<defs>
<clipPath id="clip0_4400_841">
<rect width="127" height="127" fill="white"/>
</clipPath>
</defs>
</svg>
