<svg width="196" height="196" viewBox="0 0 196 196" fill="none" xmlns="http://www.w3.org/2000/svg">
<g clip-path="url(#clip0_4488_419)">
<path d="M195.961 74.9281C195.94 74.7028 195.895 74.4804 195.827 74.265C195.782 74.0724 195.719 73.8843 195.641 73.703C195.549 73.5257 195.44 73.3581 195.314 73.203C195.188 73.019 195.042 72.8491 194.879 72.6965C194.827 72.651 194.804 72.5886 194.749 72.543L163.332 48.1432V22.8549C163.332 17.4424 158.944 13.0544 153.531 13.0544H118.129L103.953 2.04835C102.251 0.720923 100.155 0 97.9964 0C95.8379 0 93.7413 0.720923 92.0393 2.04835L77.8611 13.0544H42.4584C37.0459 13.0544 32.6579 17.442 32.6579 22.8549V48.1436L1.25071 72.5434C1.1952 72.5893 1.17223 72.6514 1.12017 72.6969C0.957323 72.8494 0.811622 73.0193 0.685652 73.2034C0.559975 73.3585 0.450549 73.526 0.359096 73.7034C0.27997 73.8846 0.217689 74.0727 0.17304 74.2654C0.10497 74.4778 0.0600456 74.6969 0.0390489 74.9189C0.0390489 74.9874 0 75.0464 0 75.1149V186.196C0.00452702 188.274 0.676789 190.295 1.91761 191.962C1.93713 191.992 1.94058 192.028 1.96316 192.054C1.98613 192.08 2.03513 192.109 2.06768 192.145C2.97315 193.337 4.14068 194.304 5.47989 194.972C6.81909 195.64 8.29404 195.99 9.79054 195.997H186.199C187.702 195.992 189.183 195.641 190.527 194.97C191.871 194.299 193.042 193.327 193.948 192.129C193.974 192.096 194.014 192.087 194.036 192.054C194.059 192.021 194.062 191.992 194.082 191.962C195.323 190.296 195.995 188.274 196 186.197V75.1241C196 75.0555 195.964 74.9966 195.961 74.9281ZM96.0345 7.20318C96.5886 6.76292 97.2755 6.52327 97.9831 6.52327C98.6908 6.52327 99.3777 6.76292 99.9318 7.20318L107.468 13.054H88.5207L96.0345 7.20318ZM10.6136 189.463L96.0349 123.111C96.5893 122.671 97.276 122.432 97.9835 122.432C98.691 122.432 99.3778 122.671 99.9322 123.111L185.376 189.463H10.6136ZM189.466 184.37L103.953 117.955C102.251 116.629 100.155 115.909 97.9964 115.909C95.8382 115.909 93.7418 116.629 92.0393 117.955L6.52346 184.37V80.0994L60.0571 121.67C60.3963 121.933 60.7839 122.127 61.1979 122.24C61.6119 122.353 62.0441 122.383 62.4699 122.33C62.8956 122.276 63.3066 122.139 63.6794 121.926C64.0521 121.713 64.3793 121.429 64.6423 121.09C64.9053 120.751 65.099 120.363 65.2122 119.949C65.3253 119.535 65.3559 119.103 65.302 118.677C65.2482 118.251 65.111 117.84 64.8983 117.468C64.6855 117.095 64.4015 116.768 64.0623 116.505L9.67608 74.2746L32.6582 56.4147V81.6575C32.6582 82.5239 33.0024 83.3548 33.615 83.9674C34.2277 84.58 35.0586 84.9242 35.9249 84.9242C36.7913 84.9242 37.6222 84.58 38.2349 83.9674C38.8475 83.3548 39.1917 82.5239 39.1917 81.6575V22.8545C39.1917 21.9881 39.5358 21.1572 40.1484 20.5446C40.7611 19.932 41.592 19.5878 42.4584 19.5878H153.531C154.397 19.5878 155.228 19.932 155.84 20.5446C156.453 21.1572 156.797 21.9881 156.797 22.8545V81.6575C156.797 82.5239 157.141 83.3548 157.754 83.9674C158.367 84.58 159.198 84.9242 160.064 84.9242C160.93 84.9242 161.761 84.58 162.374 83.9674C162.986 83.3548 163.331 82.5239 163.331 81.6575V56.4147L186.313 74.2746L131.832 116.58C131.488 116.841 131.2 117.168 130.983 117.542C130.766 117.915 130.625 118.328 130.569 118.756C130.513 119.184 130.542 119.619 130.655 120.036C130.768 120.453 130.963 120.843 131.227 121.184C131.492 121.525 131.822 121.81 132.197 122.023C132.573 122.236 132.987 122.373 133.416 122.424C133.845 122.476 134.279 122.443 134.695 122.325C135.111 122.208 135.499 122.01 135.837 121.742L189.465 80.0994V184.37H189.466Z" fill="#A6A182"/>
<path d="M137.201 78.3903V65.3231C137.201 43.6724 119.65 26.1211 97.9989 26.1211C76.3482 26.1211 58.7969 43.6724 58.7969 65.3231C58.7969 86.9738 76.3482 104.525 97.9989 104.525C99.8032 104.525 101.266 103.063 101.266 101.258C101.266 99.4541 99.8032 97.9917 97.9989 97.9917C79.9568 97.9917 65.3307 83.3656 65.3307 65.3235C65.3307 47.2814 79.9568 32.6553 97.9989 32.6553C116.041 32.6553 130.667 47.2814 130.667 65.3235V78.3907C130.667 81.9992 127.742 84.9245 124.133 84.9245C120.525 84.9245 117.599 81.9992 117.599 78.3907V65.3235C117.599 63.5192 116.137 62.0568 114.333 62.0568C112.528 62.0568 111.066 63.5192 111.066 65.3235C111.066 72.5402 105.216 78.3907 97.9989 78.3907C90.7821 78.3907 84.9317 72.5402 84.9317 65.3235C84.9317 58.1067 90.7821 52.2563 97.9989 52.2563C99.8032 52.2563 101.266 50.7938 101.266 48.9896C101.266 47.1853 99.8032 45.7229 97.9989 45.7229C89.2263 45.7033 81.5088 51.5151 79.1046 59.952C76.7004 68.3888 80.1945 77.3957 87.6597 82.0035C95.1249 86.6112 104.742 85.6978 111.207 79.7666C111.918 86.6752 117.923 91.812 124.858 91.4449C131.794 91.0773 137.223 85.3356 137.201 78.3903Z" fill="#A6A182"/>
</g>
<defs>
<clipPath id="clip0_4488_419">
<rect width="196" height="196" fill="white"/>
</clipPath>
</defs>
</svg>
