<svg t="1714660077654" class="icon" viewBox="0 0 1375 1024" version="1.1" xmlns="http://www.w3.org/2000/svg" p-id="17193" width="128" height="128"><path d="M1155.6491 526.6254a43.8857 43.8857 0 0 1 43.8857 43.8847V614.3958h117.0272a58.5136 58.5136 0 0 1 58.5146 58.5136v175.5418a58.5136 58.5136 0 0 1-58.5146 58.5136h-117.0272v73.1425a43.8857 43.8857 0 0 1-87.7714 0v-73.1425H994.7362a58.5136 58.5136 0 0 1-58.5136-58.5136V672.9094a58.5136 58.5136 0 0 1 58.5136-58.5136h117.0272v-43.8857a43.8857 43.8857 0 0 1 43.8857-43.8847zM863.0801 0a131.6561 131.6561 0 0 1 131.509101 125.454142l0.146999 6.201958v323.698787a43.8857 43.8857 0 0 1-87.566401 4.212971l-0.204999-4.212971v-323.697787A43.8857 43.8857 0 0 0 867.294071 87.974399l-4.212971-0.204999H131.6561a43.8857 43.8857 0 0 0-43.679701 39.672729l-0.205999 4.212971v731.424a43.8857 43.8857 0 0 0 39.672729 43.679701l4.212971 0.204999h643.6526a43.8857 43.8857 0 0 1 4.212971 87.566401l-4.212971 0.204999H131.6561A131.6561 131.6561 0 0 1 0.146999 869.282058L0 863.0801V131.6561A131.6561 131.6561 0 0 1 125.454142 0.146999L131.6561 0h731.424z m248.6833 702.1662H1023.993V819.1944h87.7704V702.1662z m175.5418 0h-87.7704V819.1944h87.7704V702.1662z m-666.765442-362.376523l2.223985 3.423977 94.031357 156.698929V365.800499a43.8857 43.8857 0 0 1 87.566401-4.241971l0.203999 4.241971v292.569c0 43.095705-55.002624 59.684592-79.285458 25.979823l-2.223985-3.421977-94.031357-156.700929v134.143083a43.8857 43.8857 0 0 1-87.566401 4.213972l-0.204999-4.213972v-292.568c0-43.125705 55.003624-59.714592 79.286458-26.009822z m-167.056858-17.875878a43.8857 43.8857 0 0 1 0 87.7714H321.8268v58.5136h131.6561a43.8857 43.8857 0 0 1 0 87.7704H321.8268v58.5146h131.6561a43.8857 43.8857 0 0 1 0 87.7704H292.568a58.5136 58.5136 0 0 1-58.5136-58.5136V380.427399a58.5136 58.5136 0 0 1 58.5136-58.5146h160.9139z" fill="#333333" p-id="17194"></path></svg>