<svg width="142" height="30" viewBox="0 0 142 30" fill="none" xmlns="http://www.w3.org/2000/svg">
<g clip-path="url(#clip0_4427_2)">
<path fill-rule="evenodd" clip-rule="evenodd" d="M32.938 26.2429L13.4472 24.2578L0 25.7042V30.0017L32.938 29.8144V26.2429Z" fill="#A6A182"/>
<path fill-rule="evenodd" clip-rule="evenodd" d="M32.938 23.1617L13.4472 21.8298L0 22.7299V18.7337L13.4472 15.9403L29.9327 18.0188L29.9824 15.6461L13.4472 13.6199L0 15.735V4.81408L13.4472 0L32.938 4.31706V9.08896L13.4472 5.39193L3.37673 8.22896L3.46258 10.7653L13.4472 8.10044L32.938 11.7418V23.1617Z" fill="#A6A182"/>
<path fill-rule="evenodd" clip-rule="evenodd" d="M13.4472 29.9254V24.2578L0 25.7042V30.0017L13.4472 29.9254Z" fill="#A6A182"/>
<path fill-rule="evenodd" clip-rule="evenodd" d="M0 22.731L13.4472 21.8309V15.9414L0 18.7348V22.731Z" fill="#A6A182"/>
<path fill-rule="evenodd" clip-rule="evenodd" d="M0 15.735L13.4472 13.6199V8.10044L3.46258 10.7653L3.37673 8.22896L13.4472 5.39193V0L0 4.81408V15.735Z" fill="#A6A182"/>
</g>
<path d="M55.69 26.36C54.03 26.36 52.49 26.09 51.07 25.55C49.67 25.01 48.45 24.25 47.41 23.27C46.39 22.29 45.59 21.14 45.01 19.82C44.45 18.5 44.17 17.06 44.17 15.5C44.17 13.94 44.45 12.5 45.01 11.18C45.59 9.86 46.4 8.71 47.44 7.73C48.48 6.75 49.7 5.99 51.1 5.45C52.5 4.91 54.02 4.64 55.66 4.64C57.32 4.64 58.84 4.91 60.22 5.45C61.62 5.99 62.83 6.75 63.85 7.73C64.89 8.71 65.7 9.86 66.28 11.18C66.86 12.48 67.15 13.92 67.15 15.5C67.15 17.06 66.86 18.51 66.28 19.85C65.7 21.17 64.89 22.32 63.85 23.3C62.83 24.26 61.62 25.01 60.22 25.55C58.84 26.09 57.33 26.36 55.69 26.36ZM55.66 22.22C56.6 22.22 57.46 22.06 58.24 21.74C59.04 21.42 59.74 20.96 60.34 20.36C60.94 19.76 61.4 19.05 61.72 18.23C62.06 17.41 62.23 16.5 62.23 15.5C62.23 14.5 62.06 13.59 61.72 12.77C61.4 11.95 60.94 11.24 60.34 10.64C59.76 10.04 59.07 9.58 58.27 9.26C57.47 8.94 56.6 8.78 55.66 8.78C54.72 8.78 53.85 8.94 53.05 9.26C52.27 9.58 51.58 10.04 50.98 10.64C50.38 11.24 49.91 11.95 49.57 12.77C49.25 13.59 49.09 14.5 49.09 15.5C49.09 16.48 49.25 17.39 49.57 18.23C49.91 19.05 50.37 19.76 50.95 20.36C51.55 20.96 52.25 21.42 53.05 21.74C53.85 22.06 54.72 22.22 55.66 22.22ZM70.4725 26V9.86H74.9425V14.42L74.3125 13.1C74.7925 11.96 75.5625 11.1 76.6225 10.52C77.6825 9.92 78.9725 9.62 80.4925 9.62V13.94C80.2925 13.92 80.1125 13.91 79.9525 13.91C79.7925 13.89 79.6225 13.88 79.4425 13.88C78.1625 13.88 77.1225 14.25 76.3225 14.99C75.5425 15.71 75.1525 16.84 75.1525 18.38V26H70.4725ZM92.1205 26V22.85L91.8205 22.16V16.52C91.8205 15.52 91.5105 14.74 90.8905 14.18C90.2905 13.62 89.3605 13.34 88.1005 13.34C87.2405 13.34 86.3905 13.48 85.5505 13.76C84.7305 14.02 84.0305 14.38 83.4505 14.84L81.7705 11.57C82.6505 10.95 83.7105 10.47 84.9505 10.13C86.1905 9.79 87.4505 9.62 88.7305 9.62C91.1905 9.62 93.1005 10.2 94.4605 11.36C95.8205 12.52 96.5005 14.33 96.5005 16.79V26H92.1205ZM87.2005 26.24C85.9405 26.24 84.8605 26.03 83.9605 25.61C83.0605 25.17 82.3705 24.58 81.8905 23.84C81.4105 23.1 81.1705 22.27 81.1705 21.35C81.1705 20.39 81.4005 19.55 81.8605 18.83C82.3405 18.11 83.0905 17.55 84.1105 17.15C85.1305 16.73 86.4605 16.52 88.1005 16.52H92.3905V19.25H88.6105C87.5105 19.25 86.7505 19.43 86.3305 19.79C85.9305 20.15 85.7305 20.6 85.7305 21.14C85.7305 21.74 85.9605 22.22 86.4205 22.58C86.9005 22.92 87.5505 23.09 88.3705 23.09C89.1505 23.09 89.8505 22.91 90.4705 22.55C91.0905 22.17 91.5405 21.62 91.8205 20.9L92.5405 23.06C92.2005 24.1 91.5805 24.89 90.6805 25.43C89.7805 25.97 88.6205 26.24 87.2005 26.24ZM98.6962 26L105.926 16.52L105.836 19.1L98.9062 9.86H104.156L108.536 15.89L106.556 15.95L111.086 9.86H116.066L109.106 19.01V16.49L116.306 26H110.996L106.406 19.58L108.356 19.85L103.796 26H98.6962ZM118.578 26V9.86H123.258V26H118.578ZM120.918 7.61C120.058 7.61 119.358 7.36 118.818 6.86C118.278 6.36 118.008 5.74 118.008 5C118.008 4.26 118.278 3.64 118.818 3.14C119.358 2.64 120.058 2.39 120.918 2.39C121.778 2.39 122.478 2.63 123.018 3.11C123.558 3.57 123.828 4.17 123.828 4.91C123.828 5.69 123.558 6.34 123.018 6.86C122.498 7.36 121.798 7.61 120.918 7.61ZM133.031 26.24C131.651 26.24 130.321 26.08 129.041 25.76C127.781 25.42 126.781 25 126.041 24.5L127.601 21.14C128.341 21.6 129.211 21.98 130.211 22.28C131.231 22.56 132.231 22.7 133.211 22.7C134.291 22.7 135.051 22.57 135.491 22.31C135.951 22.05 136.181 21.69 136.181 21.23C136.181 20.85 136.001 20.57 135.641 20.39C135.301 20.19 134.841 20.04 134.261 19.94C133.681 19.84 133.041 19.74 132.341 19.64C131.661 19.54 130.971 19.41 130.271 19.25C129.571 19.07 128.931 18.81 128.351 18.47C127.771 18.13 127.301 17.67 126.941 17.09C126.601 16.51 126.431 15.76 126.431 14.84C126.431 13.82 126.721 12.92 127.301 12.14C127.901 11.36 128.761 10.75 129.881 10.31C131.001 9.85 132.341 9.62 133.901 9.62C135.001 9.62 136.121 9.74 137.261 9.98C138.401 10.22 139.351 10.57 140.111 11.03L138.551 14.36C137.771 13.9 136.981 13.59 136.181 13.43C135.401 13.25 134.641 13.16 133.901 13.16C132.861 13.16 132.101 13.3 131.621 13.58C131.141 13.86 130.901 14.22 130.901 14.66C130.901 15.06 131.071 15.36 131.411 15.56C131.771 15.76 132.241 15.92 132.821 16.04C133.401 16.16 134.031 16.27 134.711 16.37C135.411 16.45 136.111 16.58 136.811 16.76C137.511 16.94 138.141 17.2 138.701 17.54C139.281 17.86 139.751 18.31 140.111 18.89C140.471 19.45 140.651 20.19 140.651 21.11C140.651 22.11 140.351 23 139.751 23.78C139.151 24.54 138.281 25.14 137.141 25.58C136.021 26.02 134.651 26.24 133.031 26.24Z" fill="black"/>
<defs>
<clipPath id="clip0_4427_2">
<rect width="32.938" height="30" fill="white"/>
</clipPath>
</defs>
</svg>
