<svg width="142" height="30" viewBox="0 0 142 30" fill="none" xmlns="http://www.w3.org/2000/svg">
<g clip-path="url(#clip0_7013_2)">
<path fill-rule="evenodd" clip-rule="evenodd" d="M32.938 26.2429L13.4472 24.2578L0 25.7042V30.0017L32.938 29.8144V26.2429Z" fill="white"/>
<path fill-rule="evenodd" clip-rule="evenodd" d="M32.938 23.1617L13.4472 21.8298L0 22.7299V18.7337L13.4472 15.9403L29.9327 18.0188L29.9824 15.6461L13.4472 13.6199L0 15.735V4.81408L13.4472 0L32.938 4.31706V9.08896L13.4472 5.39193L3.37673 8.22896L3.46258 10.7653L13.4472 8.10044L32.938 11.7418V23.1617Z" fill="white"/>
<path fill-rule="evenodd" clip-rule="evenodd" d="M13.4472 29.9254V24.2578L0 25.7042V30.0017L13.4472 29.9254Z" fill="white"/>
<path fill-rule="evenodd" clip-rule="evenodd" d="M0 22.731L13.4472 21.8309V15.9414L0 18.7348V22.731Z" fill="white"/>
<path fill-rule="evenodd" clip-rule="evenodd" d="M0 15.735L13.4472 13.6199V8.10044L3.46258 10.7653L3.37673 8.22896L13.4472 5.39193V0L0 4.81408V15.735Z" fill="white"/>
</g>
<rect x="0.5" y="0.5" width="31.938" height="29" stroke="black"/>
<mask id="path-8-outside-1_7013_2" maskUnits="userSpaceOnUse" x="43" y="1" width="99" height="27" fill="black">
<rect fill="white" x="43" y="1" width="99" height="27"/>
<path d="M55.69 26.36C54.03 26.36 52.49 26.09 51.07 25.55C49.67 25.01 48.45 24.25 47.41 23.27C46.39 22.29 45.59 21.14 45.01 19.82C44.45 18.5 44.17 17.06 44.17 15.5C44.17 13.94 44.45 12.5 45.01 11.18C45.59 9.86 46.4 8.71 47.44 7.73C48.48 6.75 49.7 5.99 51.1 5.45C52.5 4.91 54.02 4.64 55.66 4.64C57.32 4.64 58.84 4.91 60.22 5.45C61.62 5.99 62.83 6.75 63.85 7.73C64.89 8.71 65.7 9.86 66.28 11.18C66.86 12.48 67.15 13.92 67.15 15.5C67.15 17.06 66.86 18.51 66.28 19.85C65.7 21.17 64.89 22.32 63.85 23.3C62.83 24.26 61.62 25.01 60.22 25.55C58.84 26.09 57.33 26.36 55.69 26.36ZM55.66 22.22C56.6 22.22 57.46 22.06 58.24 21.74C59.04 21.42 59.74 20.96 60.34 20.36C60.94 19.76 61.4 19.05 61.72 18.23C62.06 17.41 62.23 16.5 62.23 15.5C62.23 14.5 62.06 13.59 61.72 12.77C61.4 11.95 60.94 11.24 60.34 10.64C59.76 10.04 59.07 9.58 58.27 9.26C57.47 8.94 56.6 8.78 55.66 8.78C54.72 8.78 53.85 8.94 53.05 9.26C52.27 9.58 51.58 10.04 50.98 10.64C50.38 11.24 49.91 11.95 49.57 12.77C49.25 13.59 49.09 14.5 49.09 15.5C49.09 16.48 49.25 17.39 49.57 18.23C49.91 19.05 50.37 19.76 50.95 20.36C51.55 20.96 52.25 21.42 53.05 21.74C53.85 22.06 54.72 22.22 55.66 22.22ZM70.4725 26V9.86H74.9425V14.42L74.3125 13.1C74.7925 11.96 75.5625 11.1 76.6225 10.52C77.6825 9.92 78.9725 9.62 80.4925 9.62V13.94C80.2925 13.92 80.1125 13.91 79.9525 13.91C79.7925 13.89 79.6225 13.88 79.4425 13.88C78.1625 13.88 77.1225 14.25 76.3225 14.99C75.5425 15.71 75.1525 16.84 75.1525 18.38V26H70.4725ZM92.1205 26V22.85L91.8205 22.16V16.52C91.8205 15.52 91.5105 14.74 90.8905 14.18C90.2905 13.62 89.3605 13.34 88.1005 13.34C87.2405 13.34 86.3905 13.48 85.5505 13.76C84.7305 14.02 84.0305 14.38 83.4505 14.84L81.7705 11.57C82.6505 10.95 83.7105 10.47 84.9505 10.13C86.1905 9.79 87.4505 9.62 88.7305 9.62C91.1905 9.62 93.1005 10.2 94.4605 11.36C95.8205 12.52 96.5005 14.33 96.5005 16.79V26H92.1205ZM87.2005 26.24C85.9405 26.24 84.8605 26.03 83.9605 25.61C83.0605 25.17 82.3705 24.58 81.8905 23.84C81.4105 23.1 81.1705 22.27 81.1705 21.35C81.1705 20.39 81.4005 19.55 81.8605 18.83C82.3405 18.11 83.0905 17.55 84.1105 17.15C85.1305 16.73 86.4605 16.52 88.1005 16.52H92.3905V19.25H88.6105C87.5105 19.25 86.7505 19.43 86.3305 19.79C85.9305 20.15 85.7305 20.6 85.7305 21.14C85.7305 21.74 85.9605 22.22 86.4205 22.58C86.9005 22.92 87.5505 23.09 88.3705 23.09C89.1505 23.09 89.8505 22.91 90.4705 22.55C91.0905 22.17 91.5405 21.62 91.8205 20.9L92.5405 23.06C92.2005 24.1 91.5805 24.89 90.6805 25.43C89.7805 25.97 88.6205 26.24 87.2005 26.24ZM98.6962 26L105.926 16.52L105.836 19.1L98.9062 9.86H104.156L108.536 15.89L106.556 15.95L111.086 9.86H116.066L109.106 19.01V16.49L116.306 26H110.996L106.406 19.58L108.356 19.85L103.796 26H98.6962ZM118.578 26V9.86H123.258V26H118.578ZM120.918 7.61C120.058 7.61 119.358 7.36 118.818 6.86C118.278 6.36 118.008 5.74 118.008 5C118.008 4.26 118.278 3.64 118.818 3.14C119.358 2.64 120.058 2.39 120.918 2.39C121.778 2.39 122.478 2.63 123.018 3.11C123.558 3.57 123.828 4.17 123.828 4.91C123.828 5.69 123.558 6.34 123.018 6.86C122.498 7.36 121.798 7.61 120.918 7.61ZM133.031 26.24C131.651 26.24 130.321 26.08 129.041 25.76C127.781 25.42 126.781 25 126.041 24.5L127.601 21.14C128.341 21.6 129.211 21.98 130.211 22.28C131.231 22.56 132.231 22.7 133.211 22.7C134.291 22.7 135.051 22.57 135.491 22.31C135.951 22.05 136.181 21.69 136.181 21.23C136.181 20.85 136.001 20.57 135.641 20.39C135.301 20.19 134.841 20.04 134.261 19.94C133.681 19.84 133.041 19.74 132.341 19.64C131.661 19.54 130.971 19.41 130.271 19.25C129.571 19.07 128.931 18.81 128.351 18.47C127.771 18.13 127.301 17.67 126.941 17.09C126.601 16.51 126.431 15.76 126.431 14.84C126.431 13.82 126.721 12.92 127.301 12.14C127.901 11.36 128.761 10.75 129.881 10.31C131.001 9.85 132.341 9.62 133.901 9.62C135.001 9.62 136.121 9.74 137.261 9.98C138.401 10.22 139.351 10.57 140.111 11.03L138.551 14.36C137.771 13.9 136.981 13.59 136.181 13.43C135.401 13.25 134.641 13.16 133.901 13.16C132.861 13.16 132.101 13.3 131.621 13.58C131.141 13.86 130.901 14.22 130.901 14.66C130.901 15.06 131.071 15.36 131.411 15.56C131.771 15.76 132.241 15.92 132.821 16.04C133.401 16.16 134.031 16.27 134.711 16.37C135.411 16.45 136.111 16.58 136.811 16.76C137.511 16.94 138.141 17.2 138.701 17.54C139.281 17.86 139.751 18.31 140.111 18.89C140.471 19.45 140.651 20.19 140.651 21.11C140.651 22.11 140.351 23 139.751 23.78C139.151 24.54 138.281 25.14 137.141 25.58C136.021 26.02 134.651 26.24 133.031 26.24Z"/>
</mask>
<path d="M55.69 26.36C54.03 26.36 52.49 26.09 51.07 25.55C49.67 25.01 48.45 24.25 47.41 23.27C46.39 22.29 45.59 21.14 45.01 19.82C44.45 18.5 44.17 17.06 44.17 15.5C44.17 13.94 44.45 12.5 45.01 11.18C45.59 9.86 46.4 8.71 47.44 7.73C48.48 6.75 49.7 5.99 51.1 5.45C52.5 4.91 54.02 4.64 55.66 4.64C57.32 4.64 58.84 4.91 60.22 5.45C61.62 5.99 62.83 6.75 63.85 7.73C64.89 8.71 65.7 9.86 66.28 11.18C66.86 12.48 67.15 13.92 67.15 15.5C67.15 17.06 66.86 18.51 66.28 19.85C65.7 21.17 64.89 22.32 63.85 23.3C62.83 24.26 61.62 25.01 60.22 25.55C58.84 26.09 57.33 26.36 55.69 26.36ZM55.66 22.22C56.6 22.22 57.46 22.06 58.24 21.74C59.04 21.42 59.74 20.96 60.34 20.36C60.94 19.76 61.4 19.05 61.72 18.23C62.06 17.41 62.23 16.5 62.23 15.5C62.23 14.5 62.06 13.59 61.72 12.77C61.4 11.95 60.94 11.24 60.34 10.64C59.76 10.04 59.07 9.58 58.27 9.26C57.47 8.94 56.6 8.78 55.66 8.78C54.72 8.78 53.85 8.94 53.05 9.26C52.27 9.58 51.58 10.04 50.98 10.64C50.38 11.24 49.91 11.95 49.57 12.77C49.25 13.59 49.09 14.5 49.09 15.5C49.09 16.48 49.25 17.39 49.57 18.23C49.91 19.05 50.37 19.76 50.95 20.36C51.55 20.96 52.25 21.42 53.05 21.74C53.85 22.06 54.72 22.22 55.66 22.22ZM70.4725 26V9.86H74.9425V14.42L74.3125 13.1C74.7925 11.96 75.5625 11.1 76.6225 10.52C77.6825 9.92 78.9725 9.62 80.4925 9.62V13.94C80.2925 13.92 80.1125 13.91 79.9525 13.91C79.7925 13.89 79.6225 13.88 79.4425 13.88C78.1625 13.88 77.1225 14.25 76.3225 14.99C75.5425 15.71 75.1525 16.84 75.1525 18.38V26H70.4725ZM92.1205 26V22.85L91.8205 22.16V16.52C91.8205 15.52 91.5105 14.74 90.8905 14.18C90.2905 13.62 89.3605 13.34 88.1005 13.34C87.2405 13.34 86.3905 13.48 85.5505 13.76C84.7305 14.02 84.0305 14.38 83.4505 14.84L81.7705 11.57C82.6505 10.95 83.7105 10.47 84.9505 10.13C86.1905 9.79 87.4505 9.62 88.7305 9.62C91.1905 9.62 93.1005 10.2 94.4605 11.36C95.8205 12.52 96.5005 14.33 96.5005 16.79V26H92.1205ZM87.2005 26.24C85.9405 26.24 84.8605 26.03 83.9605 25.61C83.0605 25.17 82.3705 24.58 81.8905 23.84C81.4105 23.1 81.1705 22.27 81.1705 21.35C81.1705 20.39 81.4005 19.55 81.8605 18.83C82.3405 18.11 83.0905 17.55 84.1105 17.15C85.1305 16.73 86.4605 16.52 88.1005 16.52H92.3905V19.25H88.6105C87.5105 19.25 86.7505 19.43 86.3305 19.79C85.9305 20.15 85.7305 20.6 85.7305 21.14C85.7305 21.74 85.9605 22.22 86.4205 22.58C86.9005 22.92 87.5505 23.09 88.3705 23.09C89.1505 23.09 89.8505 22.91 90.4705 22.55C91.0905 22.17 91.5405 21.62 91.8205 20.9L92.5405 23.06C92.2005 24.1 91.5805 24.89 90.6805 25.43C89.7805 25.97 88.6205 26.24 87.2005 26.24ZM98.6962 26L105.926 16.52L105.836 19.1L98.9062 9.86H104.156L108.536 15.89L106.556 15.95L111.086 9.86H116.066L109.106 19.01V16.49L116.306 26H110.996L106.406 19.58L108.356 19.85L103.796 26H98.6962ZM118.578 26V9.86H123.258V26H118.578ZM120.918 7.61C120.058 7.61 119.358 7.36 118.818 6.86C118.278 6.36 118.008 5.74 118.008 5C118.008 4.26 118.278 3.64 118.818 3.14C119.358 2.64 120.058 2.39 120.918 2.39C121.778 2.39 122.478 2.63 123.018 3.11C123.558 3.57 123.828 4.17 123.828 4.91C123.828 5.69 123.558 6.34 123.018 6.86C122.498 7.36 121.798 7.61 120.918 7.61ZM133.031 26.24C131.651 26.24 130.321 26.08 129.041 25.76C127.781 25.42 126.781 25 126.041 24.5L127.601 21.14C128.341 21.6 129.211 21.98 130.211 22.28C131.231 22.56 132.231 22.7 133.211 22.7C134.291 22.7 135.051 22.57 135.491 22.31C135.951 22.05 136.181 21.69 136.181 21.23C136.181 20.85 136.001 20.57 135.641 20.39C135.301 20.19 134.841 20.04 134.261 19.94C133.681 19.84 133.041 19.74 132.341 19.64C131.661 19.54 130.971 19.41 130.271 19.25C129.571 19.07 128.931 18.81 128.351 18.47C127.771 18.13 127.301 17.67 126.941 17.09C126.601 16.51 126.431 15.76 126.431 14.84C126.431 13.82 126.721 12.92 127.301 12.14C127.901 11.36 128.761 10.75 129.881 10.31C131.001 9.85 132.341 9.62 133.901 9.62C135.001 9.62 136.121 9.74 137.261 9.98C138.401 10.22 139.351 10.57 140.111 11.03L138.551 14.36C137.771 13.9 136.981 13.59 136.181 13.43C135.401 13.25 134.641 13.16 133.901 13.16C132.861 13.16 132.101 13.3 131.621 13.58C131.141 13.86 130.901 14.22 130.901 14.66C130.901 15.06 131.071 15.36 131.411 15.56C131.771 15.76 132.241 15.92 132.821 16.04C133.401 16.16 134.031 16.27 134.711 16.37C135.411 16.45 136.111 16.58 136.811 16.76C137.511 16.94 138.141 17.2 138.701 17.54C139.281 17.86 139.751 18.31 140.111 18.89C140.471 19.45 140.651 20.19 140.651 21.11C140.651 22.11 140.351 23 139.751 23.78C139.151 24.54 138.281 25.14 137.141 25.58C136.021 26.02 134.651 26.24 133.031 26.24Z" fill="white"/>
<path d="M51.07 25.55L50.7101 26.483L50.7146 26.4847L51.07 25.55ZM47.41 23.27L46.7171 23.9911L46.7242 23.9978L47.41 23.27ZM45.01 19.82L44.0893 20.2106L44.0945 20.2223L45.01 19.82ZM45.01 11.18L44.0944 10.7777L44.0894 10.7894L45.01 11.18ZM51.1 5.45L50.7401 4.517L50.7401 4.517L51.1 5.45ZM60.22 5.45L59.8556 6.38125L59.8601 6.383L60.22 5.45ZM63.85 7.73L63.1571 8.45114L63.1642 8.45779L63.85 7.73ZM66.28 11.18L65.3645 11.5823L65.3668 11.5874L66.28 11.18ZM66.28 19.85L67.1955 20.2523L67.1977 20.2472L66.28 19.85ZM63.85 23.3L64.5354 24.0282L64.5358 24.0278L63.85 23.3ZM60.22 25.55L59.8601 24.617L59.8556 24.6188L60.22 25.55ZM58.24 21.74L57.8686 20.8115L57.8604 20.8148L58.24 21.74ZM60.34 20.36L59.6329 19.6529H59.6329L60.34 20.36ZM61.72 18.23L60.7963 17.847L60.7922 17.8567L60.7884 17.8665L61.72 18.23ZM61.72 12.77L60.7884 13.1335L60.7922 13.1433L60.7963 13.153L61.72 12.77ZM60.34 10.64L59.621 11.335L59.6269 11.3411L59.6329 11.3471L60.34 10.64ZM58.27 9.26L57.8986 10.1885L58.27 9.26ZM53.05 9.26L52.6786 8.33149L52.6704 8.33483L53.05 9.26ZM50.98 10.64L51.6871 11.3471V11.3471L50.98 10.64ZM49.57 12.77L48.6463 12.387L48.6422 12.3967L48.6384 12.4065L49.57 12.77ZM49.57 18.23L48.6355 18.586L48.6407 18.5996L48.6463 18.613L49.57 18.23ZM50.95 20.36L50.231 21.055L50.2369 21.0611L50.2429 21.0671L50.95 20.36ZM53.05 21.74L52.6786 22.6685L53.05 21.74ZM55.69 25.36C54.1402 25.36 52.7218 25.1083 51.4254 24.6153L50.7146 26.4847C52.2582 27.0717 53.9198 27.36 55.69 27.36V25.36ZM51.4299 24.617C50.1446 24.1213 49.0368 23.4289 48.0958 22.5422L46.7242 23.9978C47.8632 25.0711 49.1954 25.8987 50.7101 26.483L51.4299 24.617ZM48.1028 22.5489C47.1791 21.6614 46.4539 20.6203 45.9255 19.4177L44.0945 20.2223C44.7261 21.6597 45.6009 22.9186 46.7172 23.9911L48.1028 22.5489ZM45.9306 19.4295C45.4274 18.2435 45.17 16.9377 45.17 15.5H43.17C43.17 17.1823 43.4726 18.7565 44.0894 20.2105L45.9306 19.4295ZM45.17 15.5C45.17 14.0623 45.4274 12.7565 45.9306 11.5705L44.0894 10.7894C43.4726 12.2435 43.17 13.8177 43.17 15.5H45.17ZM45.9255 11.5823C46.4521 10.384 47.1843 9.34494 48.1258 8.45779L46.7542 7.00221C45.6157 8.07505 44.7279 9.33604 44.0945 10.7777L45.9255 11.5823ZM48.1258 8.45779C49.0668 7.57108 50.1746 6.87873 51.4599 6.383L50.7401 4.517C49.2254 5.10126 47.8932 5.92892 46.7542 7.00221L48.1258 8.45779ZM51.4599 6.383C52.7348 5.89123 54.1316 5.64 55.66 5.64V3.64C53.9084 3.64 52.2652 3.92877 50.7401 4.517L51.4599 6.383ZM55.66 5.64C57.2102 5.64 58.6048 5.89182 59.8556 6.38124L60.5844 4.51876C59.0751 3.92818 57.4298 3.64 55.66 3.64V5.64ZM59.8601 6.383C61.1438 6.87814 62.2387 7.56867 63.1572 8.4511L64.5428 7.00889C63.4213 5.93133 62.0962 5.10186 60.5799 4.517L59.8601 6.383ZM63.1642 8.45779C64.1057 9.34494 64.8379 10.384 65.3645 11.5823L67.1955 10.7777C66.5621 9.33604 65.6743 8.07505 64.5358 7.00221L63.1642 8.45779ZM65.3668 11.5874C65.8836 12.7458 66.15 14.0449 66.15 15.5H68.15C68.15 13.7951 67.8364 12.2142 67.1932 10.7726L65.3668 11.5874ZM66.15 15.5C66.15 16.9328 65.8844 18.2466 65.3623 19.4528L67.1977 20.2472C67.8356 18.7734 68.15 17.1872 68.15 15.5H66.15ZM65.3645 19.4477C64.8379 20.646 64.1057 21.6851 63.1642 22.5722L64.5358 24.0278C65.6743 22.9549 66.5621 21.694 67.1955 20.2523L65.3645 19.4477ZM63.1646 22.5718C62.2454 23.4369 61.1481 24.1202 59.8601 24.617L60.5799 26.483C62.0919 25.8998 63.4146 25.0831 64.5354 24.0282L63.1646 22.5718ZM59.8556 24.6188C58.6035 25.1087 57.2186 25.36 55.69 25.36V27.36C57.4414 27.36 59.0765 27.0713 60.5844 26.4812L59.8556 24.6188ZM55.66 23.22C56.7152 23.22 57.706 23.04 58.6196 22.6652L57.8604 20.8148C57.214 21.08 56.4848 21.22 55.66 21.22V23.22ZM58.6114 22.6685C59.5351 22.299 60.3498 21.7644 61.0471 21.0671L59.6329 19.6529C59.1302 20.1556 58.5449 20.541 57.8686 20.8115L58.6114 22.6685ZM61.0471 21.0671C61.7485 20.3657 62.2832 19.5374 62.6516 18.5935L60.7884 17.8665C60.5168 18.5626 60.1315 19.1543 59.6329 19.6529L61.0471 21.0671ZM62.6437 18.613C63.0401 17.6572 63.23 16.6149 63.23 15.5H61.23C61.23 16.3851 61.0799 17.1628 60.7963 17.847L62.6437 18.613ZM63.23 15.5C63.23 14.3851 63.0401 13.3428 62.6437 12.387L60.7963 13.153C61.0799 13.8372 61.23 14.6149 61.23 15.5H63.23ZM62.6516 12.4065C62.2832 11.4626 61.7485 10.6343 61.0471 9.93289L59.6329 11.3471C60.1315 11.8457 60.5168 12.4374 60.7884 13.1335L62.6516 12.4065ZM61.059 9.94498C60.3777 9.24017 59.5681 8.70219 58.6414 8.33152L57.8986 10.1885C58.5719 10.4578 59.1423 10.8398 59.621 11.335L61.059 9.94498ZM58.6414 8.33152C57.7129 7.96014 56.7156 7.78 55.66 7.78V9.78C56.4844 9.78 57.2271 9.91986 57.8986 10.1885L58.6414 8.33152ZM55.66 7.78C54.6044 7.78 53.6071 7.96014 52.6786 8.33152L53.4214 10.1885C54.0929 9.91986 54.8356 9.78 55.66 9.78V7.78ZM52.6704 8.33483C51.7671 8.70544 50.9659 9.23985 50.2729 9.93289L51.6871 11.3471C52.1941 10.8401 52.7729 10.4546 53.4296 10.1852L52.6704 8.33483ZM50.2729 9.93289C49.5759 10.6299 49.0341 11.4515 48.6463 12.387L50.4937 13.153C50.7859 12.4485 51.1841 11.8501 51.6871 11.3471L50.2729 9.93289ZM48.6384 12.4065C48.2675 13.357 48.09 14.3924 48.09 15.5H50.09C50.09 14.6076 50.2325 13.823 50.5016 13.1335L48.6384 12.4065ZM48.09 15.5C48.09 16.5907 48.2685 17.6225 48.6355 18.586L50.5045 17.874C50.2316 17.1575 50.09 16.3693 50.09 15.5H48.09ZM48.6463 18.613C49.0312 19.5415 49.5583 20.3592 50.231 21.055L51.669 19.665C51.1817 19.1608 50.7888 18.5585 50.4937 17.847L48.6463 18.613ZM50.2429 21.0671C50.9402 21.7644 51.7549 22.299 52.6786 22.6685L53.4214 20.8115C52.7451 20.541 52.1598 20.1556 51.6571 19.6529L50.2429 21.0671ZM52.6786 22.6685C53.6071 23.0399 54.6044 23.22 55.66 23.22V21.22C54.8356 21.22 54.0929 21.0801 53.4214 20.8115L52.6786 22.6685ZM70.4725 26H69.4725V27H70.4725V26ZM70.4725 9.86V8.86H69.4725V9.86H70.4725ZM74.9425 9.86H75.9425V8.86H74.9425V9.86ZM74.9425 14.42L74.04 14.8507L75.9425 14.42H74.9425ZM74.3125 13.1L73.3909 12.7119L73.2167 13.1256L73.41 13.5307L74.3125 13.1ZM76.6225 10.52L77.1025 11.3973L77.1088 11.3938L77.1151 11.3903L76.6225 10.52ZM80.4925 9.62H81.4925V8.62H80.4925V9.62ZM80.4925 13.94L80.393 14.935L81.4925 15.045V13.94H80.4925ZM79.9525 13.91L79.8285 14.9023L79.8902 14.91H79.9525V13.91ZM76.3225 14.99L77.0008 15.7248L77.0015 15.7241L76.3225 14.99ZM75.1525 26V27H76.1525V26H75.1525ZM71.4725 26V9.86H69.4725V26H71.4725ZM70.4725 10.86H74.9425V8.86H70.4725V10.86ZM73.9425 9.86V14.42H75.9425V9.86H73.9425ZM75.845 13.9893L75.215 12.6693L73.41 13.5307L74.04 14.8507L75.845 13.9893ZM75.2341 13.4881C75.6287 12.551 76.2458 11.866 77.1025 11.3973L76.1425 9.64274C74.8792 10.334 73.9563 11.369 73.3909 12.7119L75.2341 13.4881ZM77.1151 11.3903C77.9919 10.8939 79.1029 10.62 80.4925 10.62V8.62C78.8421 8.62 77.3731 8.94606 76.1299 9.64974L77.1151 11.3903ZM79.4925 9.62V13.94H81.4925V9.62H79.4925ZM80.592 12.945C80.3669 12.9225 80.1529 12.91 79.9525 12.91V14.91C80.0721 14.91 80.2181 14.9175 80.393 14.935L80.592 12.945ZM80.0765 12.9177C79.871 12.892 79.6593 12.88 79.4425 12.88V14.88C79.5857 14.88 79.714 14.888 79.8285 14.9023L80.0765 12.9177ZM79.4425 12.88C77.9575 12.88 76.66 13.3156 75.6435 14.2559L77.0015 15.7241C77.585 15.1844 78.3675 14.88 79.4425 14.88V12.88ZM75.6442 14.2552C74.5812 15.2365 74.1525 16.6885 74.1525 18.38H76.1525C76.1525 16.9915 76.5038 16.1835 77.0008 15.7248L75.6442 14.2552ZM74.1525 18.38V26H76.1525V18.38H74.1525ZM75.1525 25H70.4725V27H75.1525V25ZM92.1205 26H91.1205V27H92.1205V26ZM92.1205 22.85H93.1205V22.642L93.0376 22.4513L92.1205 22.85ZM91.8205 22.16H90.8205V22.368L90.9035 22.5587L91.8205 22.16ZM90.8905 14.18L90.2082 14.9111L90.2142 14.9166L90.2203 14.9221L90.8905 14.18ZM85.5505 13.76L85.8528 14.7132L85.8598 14.711L85.8668 14.7087L85.5505 13.76ZM83.4505 14.84L82.5611 15.297L83.1177 16.3803L84.0719 15.6235L83.4505 14.84ZM81.7705 11.57L81.1946 10.7525L80.4836 11.2534L80.8811 12.027L81.7705 11.57ZM84.9505 10.13L84.6861 9.16559H84.6861L84.9505 10.13ZM94.4605 11.36L95.1095 10.5992L94.4605 11.36ZM96.5005 26V27H97.5005V26H96.5005ZM83.9605 25.61L83.5213 26.5084L83.5295 26.5124L83.5377 26.5162L83.9605 25.61ZM81.8905 23.84L82.7295 23.2958L81.8905 23.84ZM81.8605 18.83L81.0285 18.2753L81.0231 18.2834L81.0178 18.2916L81.8605 18.83ZM84.1105 17.15L84.4756 18.081L84.4835 18.0779L84.4913 18.0747L84.1105 17.15ZM92.3905 16.52H93.3905V15.52H92.3905V16.52ZM92.3905 19.25V20.25H93.3905V19.25H92.3905ZM86.3305 19.79L85.6798 19.0307L85.6706 19.0386L85.6616 19.0467L86.3305 19.79ZM86.4205 22.58L85.8042 23.3675L85.823 23.3822L85.8425 23.396L86.4205 22.58ZM90.4705 22.55L90.9727 23.4148L90.983 23.4088L90.9931 23.4026L90.4705 22.55ZM91.8205 20.9L92.7692 20.5838L91.8929 17.9549L90.8885 20.5376L91.8205 20.9ZM92.5405 23.06L93.491 23.3707L93.5936 23.057L93.4892 22.7438L92.5405 23.06ZM90.6805 25.43L90.166 24.5725L90.6805 25.43ZM93.1205 26V22.85H91.1205V26H93.1205ZM93.0376 22.4513L92.7376 21.7613L90.9035 22.5587L91.2035 23.2487L93.0376 22.4513ZM92.8205 22.16V16.52H90.8205V22.16H92.8205ZM92.8205 16.52C92.8205 15.2978 92.4319 14.2247 91.5608 13.4379L90.2203 14.9221C90.5892 15.2553 90.8205 15.7422 90.8205 16.52H92.8205ZM91.5729 13.4489C90.71 12.6436 89.4825 12.34 88.1005 12.34V14.34C89.2386 14.34 89.8711 14.5964 90.2082 14.9111L91.5729 13.4489ZM88.1005 12.34C87.1299 12.34 86.1732 12.4983 85.2343 12.8113L85.8668 14.7087C86.6079 14.4617 87.3512 14.34 88.1005 14.34V12.34ZM85.2483 12.8068C84.331 13.0976 83.5184 13.5098 82.8292 14.0565L84.0719 15.6235C84.5427 15.2502 85.1301 14.9424 85.8528 14.7132L85.2483 12.8068ZM84.34 14.383L82.66 11.113L80.8811 12.027L82.5611 15.297L84.34 14.383ZM82.3465 12.3875C83.1156 11.8456 84.0654 11.4096 85.215 11.0944L84.6861 9.16559C83.3557 9.53039 82.1855 10.0544 81.1946 10.7525L82.3465 12.3875ZM85.215 11.0944C86.3692 10.7779 87.5403 10.62 88.7305 10.62V8.62C87.3608 8.62 86.0119 8.80208 84.6861 9.16559L85.215 11.0944ZM88.7305 10.62C91.042 10.62 92.6906 11.1647 93.8116 12.1208L95.1095 10.5992C93.5105 9.23533 91.3391 8.62 88.7305 8.62V10.62ZM93.8116 12.1208C94.8739 13.0269 95.5005 14.5073 95.5005 16.79H97.5005C97.5005 14.1527 96.7672 12.0131 95.1095 10.5992L93.8116 12.1208ZM95.5005 16.79V26H97.5005V16.79H95.5005ZM96.5005 25H92.1205V27H96.5005V25ZM87.2005 25.24C86.0487 25.24 85.1204 25.0478 84.3834 24.7038L83.5377 26.5162C84.6007 27.0122 85.8324 27.24 87.2005 27.24V25.24ZM84.3998 24.7116C83.6401 24.3402 83.098 23.8639 82.7295 23.2958L81.0516 24.3842C81.6431 25.2961 82.481 25.9998 83.5213 26.5084L84.3998 24.7116ZM82.7295 23.2958C82.3593 22.725 82.1705 22.0856 82.1705 21.35H80.1705C80.1705 22.4544 80.4618 23.475 81.0516 24.3842L82.7295 23.2958ZM82.1705 21.35C82.1705 20.5565 82.3583 19.9083 82.7032 19.3684L81.0178 18.2916C80.4428 19.1917 80.1705 20.2235 80.1705 21.35H82.1705ZM82.6926 19.3847C83.0322 18.8753 83.5953 18.4262 84.4756 18.081L83.7455 16.219C82.5858 16.6738 81.6489 17.3447 81.0285 18.2753L82.6926 19.3847ZM84.4913 18.0747C85.3466 17.7225 86.5334 17.52 88.1005 17.52V15.52C86.3877 15.52 84.9144 15.7375 83.7298 16.2253L84.4913 18.0747ZM88.1005 17.52H92.3905V15.52H88.1005V17.52ZM91.3905 16.52V19.25H93.3905V16.52H91.3905ZM92.3905 18.25H88.6105V20.25H92.3905V18.25ZM88.6105 18.25C87.473 18.25 86.3905 18.4215 85.6798 19.0307L86.9813 20.5493C87.1106 20.4385 87.5481 20.25 88.6105 20.25V18.25ZM85.6616 19.0467C85.05 19.5971 84.7305 20.3176 84.7305 21.14H86.7305C86.7305 20.8824 86.8111 20.7029 86.9995 20.5333L85.6616 19.0467ZM84.7305 21.14C84.7305 22.0378 85.0945 22.812 85.8042 23.3675L87.0369 21.7925C86.8266 21.628 86.7305 21.4422 86.7305 21.14H84.7305ZM85.8425 23.396C86.5463 23.8945 87.4227 24.09 88.3705 24.09V22.09C87.6784 22.09 87.2548 21.9454 86.9986 21.764L85.8425 23.396ZM88.3705 24.09C89.3109 24.09 90.1869 23.8711 90.9727 23.4148L89.9684 21.6852C89.5142 21.9489 88.9902 22.09 88.3705 22.09V24.09ZM90.9931 23.4026C91.8115 22.901 92.3986 22.1726 92.7526 21.2624L90.8885 20.5376C90.6825 21.0674 90.3696 21.439 89.948 21.6974L90.9931 23.4026ZM90.8719 21.2162L91.5919 23.3762L93.4892 22.7438L92.7692 20.5838L90.8719 21.2162ZM91.5901 22.7493C91.3214 23.5711 90.8503 24.162 90.166 24.5725L91.195 26.2875C92.3108 25.618 93.0797 24.6289 93.491 23.3707L91.5901 22.7493ZM90.166 24.5725C89.467 24.9919 88.501 25.24 87.2005 25.24V27.24C88.7401 27.24 90.0941 26.9481 91.195 26.2875L90.166 24.5725ZM98.6962 26L97.901 25.3936L96.6759 27H98.6962V26ZM105.926 16.52L106.926 16.5549L107.035 13.4171L105.131 15.9136L105.926 16.52ZM105.836 19.1L105.036 19.7L106.737 21.9674L106.836 19.1349L105.836 19.1ZM98.9062 9.86V8.86H96.9062L98.1062 10.46L98.9062 9.86ZM104.156 9.86L104.965 9.27231L104.666 8.86H104.156V9.86ZM108.536 15.89L108.566 16.8895L110.457 16.8323L109.345 15.3023L108.536 15.89ZM106.556 15.95L105.754 15.3532L104.52 17.0122L106.586 16.9495L106.556 15.95ZM111.086 9.86V8.86H110.584L110.284 9.26317L111.086 9.86ZM116.066 9.86L116.862 10.4654L118.083 8.86H116.066V9.86ZM109.106 19.01H108.106V21.9764L109.902 19.6154L109.106 19.01ZM109.106 16.49L109.903 15.8864L108.106 13.5125V16.49H109.106ZM116.306 26V27H118.318L117.103 25.3964L116.306 26ZM110.996 26L110.183 26.5816L110.482 27H110.996V26ZM106.406 19.58L106.543 18.5894L104.241 18.2706L105.593 20.1616L106.406 19.58ZM108.356 19.85L109.159 20.4456L110.164 19.0908L108.493 18.8594L108.356 19.85ZM103.796 26V27H104.3L104.599 26.5956L103.796 26ZM99.4913 26.6064L106.721 17.1264L105.131 15.9136L97.901 25.3936L99.4913 26.6064ZM104.927 16.4851L104.837 19.0651L106.836 19.1349L106.926 16.5549L104.927 16.4851ZM106.636 18.5L99.7062 9.26L98.1062 10.46L105.036 19.7L106.636 18.5ZM98.9062 10.86H104.156V8.86H98.9062V10.86ZM103.347 10.4477L107.727 16.4777L109.345 15.3023L104.965 9.27231L103.347 10.4477ZM108.506 14.8905L106.526 14.9505L106.586 16.9495L108.566 16.8895L108.506 14.8905ZM107.359 16.5468L111.889 10.4568L110.284 9.26317L105.754 15.3532L107.359 16.5468ZM111.086 10.86H116.066V8.86H111.086V10.86ZM115.27 9.25458L108.31 18.4046L109.902 19.6154L116.862 10.4654L115.27 9.25458ZM110.106 19.01V16.49H108.106V19.01H110.106ZM108.309 17.0936L115.509 26.6036L117.103 25.3964L109.903 15.8864L108.309 17.0936ZM116.306 25H110.996V27H116.306V25ZM111.81 25.4184L107.22 18.9984L105.593 20.1616L110.183 26.5816L111.81 25.4184ZM106.269 20.5705L108.219 20.8405L108.493 18.8594L106.543 18.5894L106.269 20.5705ZM107.553 19.2544L102.993 25.4044L104.599 26.5956L109.159 20.4456L107.553 19.2544ZM103.796 25H98.6962V27H103.796V25ZM118.578 26H117.578V27H118.578V26ZM118.578 9.86V8.86H117.578V9.86H118.578ZM123.258 9.86H124.258V8.86H123.258V9.86ZM123.258 26V27H124.258V26H123.258ZM118.818 6.86L118.139 7.59376L118.139 7.59376L118.818 6.86ZM118.818 3.14L119.497 3.87376V3.87376L118.818 3.14ZM123.018 3.11L122.354 3.85741L122.361 3.86441L122.369 3.87124L123.018 3.11ZM123.018 6.86L123.711 7.58083L123.712 7.58032L123.018 6.86ZM119.578 26V9.86H117.578V26H119.578ZM118.578 10.86H123.258V8.86H118.578V10.86ZM122.258 9.86V26H124.258V9.86H122.258ZM123.258 25H118.578V27H123.258V25ZM120.918 6.61C120.265 6.61 119.822 6.42661 119.497 6.12624L118.139 7.59376C118.894 8.29339 119.851 8.61 120.918 8.61V6.61ZM119.497 6.12624C119.163 5.81668 119.008 5.46319 119.008 5H117.008C117.008 6.01681 117.393 6.90331 118.139 7.59376L119.497 6.12624ZM119.008 5C119.008 4.53681 119.163 4.18331 119.497 3.87376L118.139 2.40624C117.393 3.09668 117.008 3.98319 117.008 5H119.008ZM119.497 3.87376C119.822 3.57339 120.265 3.39 120.918 3.39V1.39C119.851 1.39 118.894 1.70661 118.139 2.40624L119.497 3.87376ZM120.918 3.39C121.582 3.39 122.03 3.57005 122.354 3.85741L123.682 2.36259C122.926 1.68995 121.974 1.39 120.918 1.39V3.39ZM122.369 3.87124C122.676 4.13205 122.828 4.44851 122.828 4.91H124.828C124.828 3.89149 124.44 3.00795 123.666 2.34876L122.369 3.87124ZM122.828 4.91C122.828 5.43058 122.66 5.81658 122.324 6.13968L123.712 7.58032C124.456 6.86342 124.828 5.94942 124.828 4.91H122.828ZM122.325 6.13917C122.03 6.4223 121.6 6.61 120.918 6.61V8.61C121.996 8.61 122.966 8.2977 123.711 7.58083L122.325 6.13917ZM129.041 25.76L128.781 26.7255L128.79 26.7279L128.799 26.7301L129.041 25.76ZM126.041 24.5L125.134 24.0789L124.776 24.8516L125.482 25.3286L126.041 24.5ZM127.601 21.14L128.129 20.2907L127.17 19.6944L126.694 20.7189L127.601 21.14ZM130.211 22.28L129.924 23.2378L129.935 23.2412L129.947 23.2443L130.211 22.28ZM135.491 22.31L134.999 21.4394L134.991 21.4442L134.983 21.4491L135.491 22.31ZM135.641 20.39L135.134 21.2519L135.164 21.2692L135.194 21.2844L135.641 20.39ZM134.261 19.94L134.091 20.9255L134.261 19.94ZM132.341 19.64L132.196 20.6294L132.2 20.6299L132.341 19.64ZM130.271 19.25L130.022 20.2185L130.035 20.2219L130.049 20.2249L130.271 19.25ZM128.351 18.47L128.857 17.6073L128.351 18.47ZM126.941 17.09L126.079 17.5957L126.085 17.6066L126.092 17.6174L126.941 17.09ZM127.301 12.14L126.509 11.5303L126.504 11.5368L126.499 11.5433L127.301 12.14ZM129.881 10.31L130.247 11.2408L130.254 11.2379L130.261 11.235L129.881 10.31ZM137.261 9.98L137.467 9.00145L137.261 9.98ZM140.111 11.03L141.017 11.4542L141.398 10.64L140.629 10.1745L140.111 11.03ZM138.551 14.36L138.043 15.2214L138.991 15.7799L139.457 14.7842L138.551 14.36ZM136.181 13.43L135.957 14.4044L135.971 14.4077L135.985 14.4106L136.181 13.43ZM131.621 13.58L131.118 12.7162L131.621 13.58ZM131.411 15.56L130.904 16.4219L130.915 16.4282L130.926 16.4342L131.411 15.56ZM134.711 16.37L134.566 17.3594L134.582 17.3617L134.598 17.3635L134.711 16.37ZM136.811 16.76L137.06 15.7915L136.811 16.76ZM138.701 17.54L138.182 18.3948L138.2 18.4056L138.218 18.4156L138.701 17.54ZM140.111 18.89L139.262 19.4174L139.266 19.4241L139.27 19.4308L140.111 18.89ZM139.751 23.78L140.536 24.3997L140.544 24.3897L139.751 23.78ZM137.141 25.58L136.781 24.6471L136.776 24.6492L137.141 25.58ZM133.031 25.24C131.729 25.24 130.481 25.0891 129.284 24.7899L128.799 26.7301C130.162 27.0709 131.573 27.24 133.031 27.24V25.24ZM129.302 24.7945C128.104 24.4713 127.218 24.0881 126.601 23.6714L125.482 25.3286C126.345 25.9119 127.459 26.3687 128.781 26.7255L129.302 24.7945ZM126.948 24.9211L128.508 21.5611L126.694 20.7189L125.134 24.0789L126.948 24.9211ZM127.073 21.9893C127.902 22.5041 128.856 22.9173 129.924 23.2378L130.499 21.3222C129.567 21.0427 128.781 20.6959 128.129 20.2907L127.073 21.9893ZM129.947 23.2443C131.046 23.5461 132.135 23.7 133.211 23.7V21.7C132.328 21.7 131.417 21.5739 130.476 21.3157L129.947 23.2443ZM133.211 23.7C134.312 23.7 135.311 23.5782 136 23.1709L134.983 21.4491C134.792 21.5618 134.271 21.7 133.211 21.7V23.7ZM135.983 23.1806C136.701 22.7749 137.181 22.1107 137.181 21.23H135.181C135.181 21.2845 135.171 21.2998 135.166 21.3066C135.158 21.32 135.12 21.3711 134.999 21.4394L135.983 23.1806ZM137.181 21.23C137.181 20.8761 137.095 20.5175 136.888 20.1942C136.682 19.8743 136.396 19.6491 136.089 19.4956L135.194 21.2844C135.221 21.2981 135.231 21.3063 135.229 21.305C135.227 21.303 135.217 21.2936 135.205 21.2758C135.194 21.2577 135.186 21.2399 135.183 21.2269C135.18 21.2147 135.181 21.2142 135.181 21.23H137.181ZM136.148 19.5281C135.667 19.2446 135.077 19.0659 134.431 18.9545L134.091 20.9255C134.605 21.0141 134.936 21.1354 135.134 21.2519L136.148 19.5281ZM134.431 18.9545C133.84 18.8526 133.191 18.7511 132.483 18.6501L132.2 20.6299C132.892 20.7288 133.523 20.8274 134.091 20.9255L134.431 18.9545ZM132.487 18.6506C131.834 18.5546 131.17 18.4296 130.494 18.2751L130.049 20.2249C130.773 20.3904 131.489 20.5254 132.196 20.6294L132.487 18.6506ZM130.52 18.2815C129.904 18.1229 129.351 17.8969 128.857 17.6073L127.846 19.3327C128.512 19.7231 129.239 20.0171 130.022 20.2185L130.52 18.2815ZM128.857 17.6073C128.42 17.3508 128.067 17.0068 127.791 16.5626L126.092 17.6174C126.536 18.3332 127.123 18.9092 127.846 19.3327L128.857 17.6073ZM127.804 16.5843C127.581 16.204 127.431 15.645 127.431 14.84H125.431C125.431 15.875 125.622 16.816 126.079 17.5957L127.804 16.5843ZM127.431 14.84C127.431 14.0236 127.659 13.3353 128.104 12.7367L126.499 11.5433C125.784 12.5047 125.431 13.6164 125.431 14.84H127.431ZM128.094 12.7497C128.561 12.1424 129.258 11.6292 130.247 11.2408L129.516 9.37925C128.265 9.87081 127.242 10.5776 126.509 11.5303L128.094 12.7497ZM130.261 11.235C131.231 10.8366 132.436 10.62 133.901 10.62V8.62C132.247 8.62 130.771 8.86344 129.501 9.38498L130.261 11.235ZM133.901 10.62C134.928 10.62 135.979 10.732 137.055 10.9585L137.467 9.00145C136.264 8.74802 135.075 8.62 133.901 8.62V10.62ZM137.055 10.9585C138.118 11.1822 138.955 11.4987 139.594 11.8855L140.629 10.1745C139.748 9.64128 138.685 9.25782 137.467 9.00145L137.055 10.9585ZM139.206 10.6058L137.646 13.9358L139.457 14.7842L141.017 11.4542L139.206 10.6058ZM139.059 13.4986C138.193 12.9879 137.299 12.6337 136.378 12.4494L135.985 14.4106C136.664 14.5463 137.349 14.8121 138.043 15.2214L139.059 13.4986ZM136.406 12.4556C135.558 12.26 134.723 12.16 133.901 12.16V14.16C134.56 14.16 135.244 14.24 135.957 14.4044L136.406 12.4556ZM133.901 12.16C132.814 12.16 131.833 12.2987 131.118 12.7162L132.125 14.4438C132.37 14.3013 132.908 14.16 133.901 14.16V12.16ZM131.118 12.7162C130.424 13.1208 129.901 13.7679 129.901 14.66H131.901C131.901 14.6421 131.904 14.6342 131.904 14.6323C131.905 14.6306 131.906 14.6253 131.913 14.6147C131.929 14.5921 131.981 14.5282 132.125 14.4438L131.118 12.7162ZM129.901 14.66C129.901 15.4082 130.254 16.0392 130.904 16.4219L131.918 14.6981C131.907 14.6915 131.9 14.6863 131.895 14.6827C131.89 14.6792 131.888 14.6773 131.888 14.6772C131.888 14.6771 131.89 14.6785 131.892 14.6814C131.894 14.6843 131.897 14.6879 131.899 14.692C131.904 14.7011 131.905 14.7068 131.905 14.7053C131.904 14.703 131.901 14.6891 131.901 14.66H129.901ZM130.926 16.4342C131.404 16.6997 131.979 16.8869 132.619 17.0193L133.024 15.0607C132.504 14.9531 132.139 14.8203 131.897 14.6858L130.926 16.4342ZM132.619 17.0193C133.22 17.1437 133.87 17.257 134.566 17.3594L134.857 15.3806C134.193 15.283 133.582 15.1763 133.024 15.0607L132.619 17.0193ZM134.598 17.3635C135.251 17.4382 135.906 17.5596 136.562 17.7285L137.06 15.7915C136.317 15.6004 135.572 15.4618 134.825 15.3765L134.598 17.3635ZM136.562 17.7285C137.177 17.8865 137.715 18.1107 138.182 18.3948L139.22 16.6852C138.568 16.2893 137.846 15.9935 137.06 15.7915L136.562 17.7285ZM138.218 18.4156C138.644 18.6502 138.989 18.9783 139.262 19.4174L140.961 18.3626C140.514 17.6417 139.919 17.0698 139.184 16.6644L138.218 18.4156ZM139.27 19.4308C139.494 19.7789 139.651 20.3111 139.651 21.11H141.651C141.651 20.0689 141.449 19.1211 140.953 18.3492L139.27 19.4308ZM139.651 21.11C139.651 21.8933 139.422 22.5681 138.959 23.1703L140.544 24.3897C141.281 23.4319 141.651 22.3267 141.651 21.11H139.651ZM138.967 23.1604C138.503 23.7474 137.797 24.2549 136.781 24.6471L137.501 26.5129C138.765 26.0251 139.8 25.3326 140.536 24.3996L138.967 23.1604ZM136.776 24.6492C135.805 25.0306 134.567 25.24 133.031 25.24V27.24C134.736 27.24 136.238 27.0094 137.507 26.5108L136.776 24.6492Z" fill="black" mask="url(#path-8-outside-1_7013_2)"/>
<defs>
<clipPath id="clip0_7013_2">
<rect width="32.938" height="30" fill="white"/>
</clipPath>
</defs>
</svg>
